<svg width="152" height="25" viewBox="0 0 152 25" fill="none" xmlns="http://www.w3.org/2000/svg">
<g id="Group">
<path id="Vector" d="M15.3778 5.2238C15.21 5.49194 15.034 5.69265 14.8498 5.82672C14.6655 5.96079 14.4278 6.02741 14.1375 6.02741C13.8809 6.02741 13.6045 5.94682 13.3084 5.78479C13.0123 5.62275 12.6775 5.44179 12.3033 5.24027C11.929 5.03957 11.5021 4.85779 11.0218 4.69575C10.5414 4.53372 9.99444 4.45313 9.38002 4.45313C8.31897 4.45313 7.52934 4.67933 7.00951 5.13171C6.4905 5.5841 6.23059 6.19521 6.23059 6.96591C6.23059 7.45778 6.38686 7.86494 6.69942 8.18901C7.01198 8.51308 7.42241 8.79189 7.93073 9.02631C8.43904 9.26073 9.01976 9.47625 9.67284 9.67119C10.3259 9.86695 10.993 10.0841 11.6748 10.3243C12.3559 10.5644 13.023 10.8465 13.6769 11.1698C14.3299 11.4939 14.9106 11.9068 15.4189 12.4094C15.9273 12.9119 16.3377 13.523 16.6503 14.2436C16.9628 14.9641 17.1191 15.8318 17.1191 16.8485C17.1191 17.9762 16.9233 19.0315 16.5326 20.0144C16.1419 20.9973 15.5752 21.8543 14.8325 22.5856C14.0898 23.3168 13.1743 23.8917 12.0853 24.3112C10.9963 24.7299 9.76002 24.9396 8.3749 24.9396C7.61571 24.9396 6.84255 24.8615 6.0554 24.7052C5.26825 24.5489 4.50577 24.3285 3.76879 24.0439C3.03181 23.7593 2.33925 23.4212 1.69193 23.0305C1.04378 22.6399 0.480351 22.2039 0 21.7244L1.67466 19.0775C1.79721 18.8768 1.97075 18.7148 2.19365 18.5914C2.41656 18.4688 2.65673 18.4072 2.91418 18.4072C3.24895 18.4072 3.58701 18.5133 3.92753 18.7255C4.26805 18.9377 4.653 19.1721 5.08318 19.4287C5.51253 19.6862 6.00687 19.9206 6.56536 20.132C7.12385 20.3442 7.78269 20.4503 8.54187 20.4503C9.5692 20.4503 10.3679 20.2241 10.937 19.7717C11.5062 19.3193 11.7916 18.6021 11.7916 17.6192C11.7916 17.05 11.6354 16.5861 11.3228 16.2291C11.0102 15.8722 10.5998 15.5761 10.0915 15.3416C9.58317 15.1072 9.00495 14.9008 8.35763 14.7215C7.71031 14.543 7.04571 14.3447 6.36467 14.1268C5.68362 13.9088 5.01901 13.6407 4.37168 13.3232C3.72354 13.0049 3.14614 12.5862 2.63783 12.0672C2.12951 11.5482 1.71907 10.9008 1.40652 10.1244C1.09396 9.34874 0.937664 8.39052 0.937664 7.25215C0.937664 6.33668 1.12193 5.44342 1.49042 4.57237C1.8589 3.70133 2.40012 2.92568 3.11489 2.24382C3.82966 1.56277 4.70646 1.01829 5.74448 0.611147C6.78333 0.203999 7.97186 0 9.31256 0C10.0602 0 10.789 0.0584101 11.4988 0.17603C12.2078 0.293651 12.8807 0.466345 13.5173 0.695005C14.1539 0.923665 14.7486 1.1976 15.3013 1.51592C15.8541 1.83423 16.3484 2.19449 16.7835 2.59588L15.3778 5.2238Z" fill="#F15A29"/>
<path id="Vector_2" d="M30.6201 20.1988C31.3793 20.1988 32.0579 20.0729 32.655 19.8221C33.2522 19.5704 33.758 19.211 34.1709 18.7413C34.5838 18.2725 34.8997 17.7 35.1176 17.0247C35.3356 16.3494 35.4442 15.5812 35.4442 14.7217V0.265869H41.1056V14.7217C41.1056 16.2178 40.8629 17.5914 40.3768 18.8425C39.8907 20.0935 39.1957 21.171 38.2917 22.075C37.387 22.9797 36.2872 23.683 34.9918 24.1856C33.6963 24.6881 32.2388 24.939 30.6201 24.939C28.9899 24.939 27.5266 24.6881 26.2311 24.1856C24.9356 23.683 23.836 22.9797 22.9312 22.075C22.0264 21.1702 21.3338 20.0927 20.8543 18.8425C20.374 17.5923 20.1338 16.2186 20.1338 14.7217V0.265869H25.7952V14.7044C25.7952 15.5647 25.9038 16.3321 26.1217 17.0074C26.3397 17.6835 26.6547 18.2585 27.0685 18.7331C27.4814 19.2077 27.9872 19.5704 28.5844 19.8221C29.1823 20.0729 29.8609 20.1988 30.6201 20.1988Z" fill="#F15A29"/>
<path id="Vector_3" d="M50.9881 15.6426V24.6713H45.3267V0.266357H53.2664C55.0307 0.266357 56.5351 0.448144 57.7804 0.810875C59.0257 1.17361 60.0415 1.67947 60.8287 2.32679C61.6158 2.97412 62.1883 3.73987 62.5453 4.62161C62.9022 5.50418 63.0816 6.46404 63.0816 7.50288C63.0816 8.29579 62.9754 9.04429 62.7632 9.74754C62.551 10.4508 62.2352 11.1014 61.8165 11.6994C61.3979 12.2965 60.8838 12.8304 60.2751 13.2992C59.6664 13.768 58.9657 14.1538 58.1728 14.4548C58.552 14.6448 58.9073 14.8793 59.2363 15.1581C59.5653 15.4378 59.8532 15.7783 60.0991 16.1797L65.2917 24.6722H60.1666C59.2174 24.6722 58.5363 24.3152 58.1226 23.6005L54.0692 16.5153C53.8907 16.2027 53.681 15.979 53.4408 15.8449C53.2006 15.7108 52.8626 15.6442 52.4275 15.6442H50.9881V15.6426ZM50.9881 11.7397H53.2664C54.0371 11.7397 54.6927 11.6418 55.2347 11.4469C55.7759 11.2519 56.2201 10.9805 56.5664 10.6342C56.9127 10.288 57.1635 9.88326 57.3198 9.42018C57.4761 8.9571 57.5542 8.45701 57.5542 7.92073C57.5542 6.84899 57.2055 6.01086 56.5072 5.40795C55.8089 4.80504 54.7289 4.50318 53.2664 4.50318H50.9881V11.7397Z" fill="#F15A29"/>
<path id="Vector_4" d="M99.5374 20.1486H108.583V24.6708H93.876V0.265869H99.5374V20.1486Z" fill="#F15A29"/>
<path id="Vector_5" d="M121.949 20.1988C122.708 20.1988 123.387 20.0729 123.984 19.8221C124.581 19.5704 125.086 19.211 125.5 18.7413C125.913 18.2725 126.229 17.7 126.446 17.0247C126.664 16.3494 126.772 15.5812 126.772 14.7217V0.265869H132.434V14.7217C132.434 16.2178 132.191 17.5914 131.705 18.8425C131.219 20.0935 130.524 21.171 129.62 22.075C128.715 22.9797 127.616 23.683 126.32 24.1856C125.025 24.6881 123.567 24.939 121.948 24.939C120.318 24.939 118.855 24.6881 117.56 24.1856C116.265 23.683 115.165 22.9797 114.26 22.075C113.356 21.1702 112.663 20.0927 112.183 18.8425C111.703 17.5923 111.463 16.2186 111.463 14.7217V0.265869H117.124V14.7044C117.124 15.5647 117.233 16.3321 117.451 17.0074C117.669 17.6835 117.984 18.2585 118.398 18.7331C118.81 19.2077 119.316 19.5704 119.913 19.8221C120.511 20.0729 121.19 20.1988 121.949 20.1988Z" fill="#F15A29"/>
<path id="Vector_6" d="M150.257 5.2238C150.089 5.49194 149.914 5.69265 149.73 5.82672C149.546 5.96079 149.309 6.02741 149.018 6.02741C148.761 6.02741 148.485 5.94682 148.189 5.78479C147.893 5.62275 147.558 5.44179 147.184 5.24027C146.81 5.03957 146.383 4.85779 145.903 4.69575C145.422 4.53372 144.875 4.45313 144.261 4.45313C143.2 4.45313 142.41 4.67933 141.891 5.13171C141.372 5.5841 141.112 6.19521 141.112 6.96591C141.112 7.45778 141.269 7.86494 141.581 8.18901C141.894 8.51308 142.304 8.79189 142.812 9.02631C143.321 9.26073 143.901 9.47625 144.555 9.67119C145.208 9.86695 145.875 10.0841 146.556 10.3243C147.237 10.5644 147.904 10.8465 148.558 11.1698C149.211 11.4939 149.791 11.9068 150.3 12.4094C150.808 12.9119 151.219 13.523 151.531 14.2436C151.844 14.9641 152 15.8318 152 16.8485C152 17.9762 151.804 19.0315 151.414 20.0144C151.023 20.9973 150.456 21.8543 149.713 22.5856C148.971 23.3168 148.055 23.8917 146.966 24.3112C145.877 24.7299 144.641 24.9396 143.256 24.9396C142.497 24.9396 141.723 24.8615 140.936 24.7052C140.149 24.5489 139.387 24.3285 138.65 24.0439C137.913 23.7593 137.22 23.4212 136.573 23.0305C135.925 22.6399 135.361 22.2039 134.881 21.7244L136.556 19.0775C136.678 18.8768 136.852 18.7148 137.075 18.5914C137.297 18.4688 137.538 18.4072 137.795 18.4072C138.13 18.4072 138.468 18.5133 138.808 18.7255C139.149 18.9377 139.534 19.1721 139.964 19.4287C140.393 19.6862 140.888 19.9206 141.446 20.132C142.005 20.3442 142.663 20.4503 143.423 20.4503C144.45 20.4503 145.249 20.2241 145.818 19.7717C146.388 19.3193 146.673 18.6021 146.673 17.6192C146.673 17.05 146.516 16.5861 146.204 16.2291C145.891 15.8722 145.481 15.5761 144.972 15.3416C144.464 15.1072 143.886 14.9008 143.239 14.7215C142.59 14.543 141.926 14.3447 141.245 14.1268C140.564 13.9088 139.899 13.6407 139.252 13.3232C138.604 13.0049 138.026 12.5862 137.518 12.0672C137.01 11.5482 136.599 10.9008 136.287 10.1244C135.974 9.34874 135.818 8.39052 135.818 7.25215C135.818 6.33668 136.002 5.44342 136.37 4.57237C136.739 3.70133 137.28 2.92568 137.995 2.24382C138.71 1.56277 139.587 1.01829 140.625 0.611147C141.663 0.203999 142.852 0 144.193 0C144.94 0 145.669 0.0584101 146.379 0.17603C147.088 0.293651 147.761 0.466345 148.397 0.695005C149.034 0.923665 149.629 1.1976 150.181 1.51592C150.734 1.83423 151.228 2.19449 151.664 2.59588L150.257 5.2238Z" fill="#F15A29"/>
<path id="Vector_7" d="M82.5353 11.7399H77.6273V7.17737L71.947 1.82935V11.7399H65.2451V15.6641H71.947V24.6707H77.6273V15.6641H86.7301L82.5353 11.7399Z" fill="#F15A29"/>
<path id="Vector_8" d="M80.5557 4.50319C81.2705 4.50319 81.8874 4.59282 82.4064 4.77131C82.9254 4.9498 83.3556 5.20396 83.6961 5.53379C84.0366 5.86362 84.2908 6.25681 84.4586 6.71495C84.6264 7.1731 84.7095 7.6814 84.7095 8.23906C84.7095 9.18003 84.5293 9.96552 84.1699 10.5956L88.0045 14.1916C88.8089 13.4662 89.3945 12.605 89.7852 11.5892C90.1759 10.5734 90.3717 9.45639 90.3717 8.23906C90.3717 7.11139 90.1817 6.06187 89.8025 5.09048C89.4225 4.11908 88.8336 3.276 88.0357 2.56123C87.2371 1.84646 86.2213 1.28548 84.9875 0.877514C83.7537 0.470367 82.2765 0.266367 80.5574 0.266367L73.1465 0.239258L77.5519 4.47688L80.5557 4.50319Z" fill="black"/>
</g>
</svg>
